<svg width="36" height="36" viewBox="0 0 36 36" fill="none" xmlns="http://www.w3.org/2000/svg">
<path d="M20.745 28.5C20.5209 28.5008 20.2995 28.4513 20.097 28.3553C19.8945 28.2592 19.7161 28.119 19.575 27.945L12.33 18.945C12.1093 18.6766 11.9887 18.3399 11.9887 17.9925C11.9887 17.6451 12.1093 17.3084 12.33 17.04L19.83 8.03999C20.0846 7.73367 20.4504 7.54103 20.8471 7.50446C21.2437 7.46789 21.6386 7.59039 21.945 7.84499C22.2513 8.0996 22.4439 8.46547 22.4805 8.86211C22.5171 9.25875 22.3946 9.65367 22.14 9.95999L15.435 18L21.915 26.04C22.0984 26.2602 22.2149 26.5283 22.2507 26.8126C22.2865 27.0969 22.2402 27.3856 22.1171 27.6444C21.994 27.9031 21.7994 28.1213 21.5562 28.2729C21.313 28.4245 21.0315 28.5033 20.745 28.5Z" fill="white"/>
</svg>
