<svg xmlns="http://www.w3.org/2000/svg" width="53.367" height="53.368" viewBox="0 0 53.367 53.368"><defs><style>.a{fill:#772ce8;stroke-linejoin:round;}.b,.c,.d,.e{fill:#fff;}.b{font-size:21px;}.b,.c,.d{font-family:Poppins-Bold, Poppins;font-weight:700;}.b,.e{letter-spacing:-0.05em;}.c{font-size:10px;}.d{font-size:8px;}.e{font-size:4px;font-family:Poppins-Medium, Poppins;font-weight:500;}.f,.g{stroke:none;}.g{fill:#fff;}</style></defs><g transform="translate(-1194.108 -999.07)"><g class="a" transform="matrix(-0.999, 0.035, -0.035, -0.999, 1246.441, 1049.672)"><path class="f" d="M 24.79873466491699 50.09840393066406 C 21.38357353210449 50.09840393066406 18.07034492492676 49.4294548034668 14.95105457305908 48.11013412475586 C 11.93843364715576 46.83591461181641 9.23293399810791 45.01186370849609 6.909724235534668 42.68863677978516 C 4.586513996124268 40.36541366577148 2.762474060058594 37.65990447998047 1.488264083862305 34.64726638793945 C 0.1689541190862656 31.5279655456543 -0.4999958872795105 28.2147159576416 -0.4999958872795105 24.79954528808594 C -0.4999958872795105 18.56992530822754 1.77886688709259 12.59701728820801 5.921200752258301 7.957511901855469 C 5.75922679901123 4.657531261444092 0.4319960176944733 2.449894428253174 0.3772041201591492 2.42757511138916 L -0.8705058693885803 1.919465065002441 L 0.4063441157341003 1.490425109863281 C 1.899254083633423 0.9889950752258301 3.428214073181152 0.7347450852394104 4.950774192810059 0.7347450852394104 C 8.733151435852051 0.7347450852394104 11.44156455993652 2.271036863327026 12.28257274627686 2.815500736236572 C 16.08663940429688 0.6453391313552856 20.40675926208496 -0.4999949336051941 24.79873466491699 -0.4999949336051941 C 28.21387481689453 -0.4999949336051941 31.52714347839355 0.1689950823783875 34.6464958190918 1.488385081291199 C 37.65917587280273 2.762665033340454 40.36474227905273 4.586794853210449 42.68803405761719 6.910105228424072 C 45.01132583618164 9.233414649963379 46.83544540405273 11.93900489807129 48.10970306396484 14.95170497894287 C 49.42909240722656 18.07107543945312 50.09807586669922 21.38436508178711 50.09807586669922 24.79953575134277 C 50.09807586669922 28.21469497680664 49.42909240722656 31.52795600891113 48.10970306396484 34.64726638793945 C 46.83544540405273 37.65989685058594 45.01132583618164 40.36540603637695 42.68802261352539 42.68864440917969 C 40.36474227905273 45.01185607910156 37.65917587280273 46.83591461181641 34.646484375 48.11012649536133 C 31.52714347839355 49.4294548034668 28.2138843536377 50.09840393066406 24.79873466491699 50.09840393066406 Z"/><path class="g" d="M 24.79873466491699 49.59840393066406 C 38.49493408203125 49.59840393066406 49.59807586669922 38.49583435058594 49.59807586669922 24.79953575134277 C 49.59807586669922 11.10323524475098 38.49493408203125 5.079345555714099e-06 24.79873466491699 5.079345555714099e-06 C 20.22200393676758 5.079345555714099e-06 15.93771457672119 1.245355129241943 12.25746440887451 3.407785177230835 L 12.25612449645996 3.402475118637085 C 12.25612449645996 3.402475118637085 7.280724048614502 -0.2910650670528412 0.5655441284179688 1.964405059814453 C 0.5655441284179688 1.964405059814453 6.46066427230835 4.358105182647705 6.424804210662842 8.145355224609375 C 2.432884216308594 12.54663467407227 4.118652213946916e-06 18.3886547088623 4.118652213946916e-06 24.79954528808594 C 4.118652213946916e-06 38.49583435058594 11.10249423980713 49.59841537475586 24.79873466491699 49.59840393066406 M 24.79873466491699 50.59840393066406 C 21.31629371643066 50.59840393066406 17.93753433227539 49.91616439819336 14.7562837600708 48.57063674926758 C 11.68405437469482 47.27121353149414 8.92513370513916 45.41117477416992 6.556174278259277 43.04219436645508 C 4.187203884124756 40.67321395874023 2.327174186706543 37.91427612304688 1.027764081954956 34.84203338623047 C -0.3177558779716492 31.66077423095703 -0.9999958872795105 28.28199577331543 -0.9999958872795105 24.79954528808594 C -0.9999958872795105 18.5192985534668 1.271281242370605 12.49477005004883 5.404415607452393 7.786949157714844 C 5.231488704681396 6.414091110229492 3.998727560043335 5.235135078430176 2.949344158172607 4.464545249938965 C 1.59550416469574 3.470395088195801 0.2022941112518311 2.89623498916626 0.1883841156959534 2.890555143356323 C -0.1984858810901642 2.732535123825073 -0.4467858672142029 2.350425004959106 -0.4334658682346344 1.932735085487366 C -0.4201558828353882 1.515055060386658 -0.1489958763122559 1.149505138397217 0.2471541166305542 1.01644504070282 C 1.791474103927612 0.4977450668811798 3.374004125595093 0.2347450852394104 4.950774192810059 0.2347450852394104 C 8.52763843536377 0.2347450852394104 11.19008159637451 1.569633722305298 12.29478645324707 2.23489785194397 C 16.11040687561035 0.1167964041233063 20.41987228393555 -0.9999949336051941 24.79873466491699 -0.9999949336051941 C 28.28115463256836 -0.9999949336051941 31.65995407104492 -0.3177149295806885 34.84127426147461 1.02788507938385 C 37.91355514526367 2.327375173568726 40.67253494262695 4.187485218048096 43.04158401489258 6.556555271148682 C 45.4106330871582 8.925624847412109 47.27073287963867 11.68462467193604 48.57021331787109 14.75692462921143 C 49.91580581665039 17.93826484680176 50.59807586669922 21.31708526611328 50.59807586669922 24.79953575134277 C 50.59807586669922 28.28198432922363 49.91580581665039 31.66076469421387 48.57020568847656 34.84204483032227 C 47.27073287963867 37.91427612304688 45.4106330871582 40.67321395874023 43.04157257080078 43.04219436645508 C 40.67253494262695 45.41117477416992 37.91354370117188 47.27120590209961 34.84125518798828 48.57063674926758 C 31.65995407104492 49.91616439819336 28.28116416931152 50.59840393066406 24.79873466491699 50.59840393066406 Z"/></g><text class="b" transform="translate(1207.345 1031.674)"><tspan x="0" y="0">30</tspan></text><text class="c" transform="translate(1201.364 1027.984)"><tspan x="0" y="0">-</tspan></text><text class="d" transform="translate(1232.598 1024.984)"><tspan x="0" y="0">%</tspan></text><text class="e" transform="translate(1207.053 1037.157)"><tspan x="0" y="0">De descuento</tspan></text></g></svg>