<?xml version="1.0" encoding="UTF-8" standalone="no"?><!-- Generator: Gravit.io --><svg xmlns="http://www.w3.org/2000/svg" xmlns:xlink="http://www.w3.org/1999/xlink" style="isolation:isolate" viewBox="0 0 22.7 30.5" width="22.7pt" height="30.5pt"><defs><clipPath id="_clipPath_NoUhXqe5NHNdnJCilPeGmrq8syEu7EHr"><rect width="22.7" height="30.5"/></clipPath></defs><g clip-path="url(#_clipPath_NoUhXqe5NHNdnJCilPeGmrq8syEu7EHr)"><g><g><path d=" M 22.058 5.211 L 19.358 5.211 L 19.358 5.168 C 19.334 3.393 18.413 1.752 16.91 0.807 C 15.407 -0.137 13.528 -0.255 11.919 0.493 C 10.31 -0.255 8.431 -0.137 6.928 0.807 C 5.425 1.752 4.504 3.393 4.48 5.168 L 4.48 5.211 L 0.647 5.211 C 0.316 5.211 0.047 5.48 0.047 5.811 L 0.047 26.651 C 0.061 28.787 1.803 30.507 3.939 30.495 L 18.766 30.495 C 20.9 30.504 22.639 28.785 22.653 26.651 L 22.653 5.805 C 22.653 5.474 22.384 5.205 22.053 5.205 L 22.058 5.211 Z  M 14.138 1.196 C 16.348 1.182 18.152 2.958 18.171 5.168 L 18.171 5.211 L 14.931 5.211 L 14.931 5.168 C 14.93 3.689 14.29 2.283 13.176 1.311 C 13.491 1.235 13.815 1.197 14.139 1.197 L 14.138 1.196 Z  M 11.919 1.851 C 13.049 2.576 13.734 3.825 13.739 5.168 L 13.739 5.211 L 10.105 5.211 L 10.105 5.168 C 10.108 3.826 10.791 2.578 11.919 1.851 L 11.919 1.851 Z  M 5.674 5.168 C 5.693 2.958 7.497 1.182 9.707 1.196 C 10.031 1.196 10.355 1.234 10.67 1.31 C 9.557 2.283 8.919 3.69 8.919 5.168 L 8.919 5.211 L 5.679 5.211 L 5.674 5.168 Z  M 1.243 26.651 L 1.243 6.405 L 4.483 6.405 L 4.483 10.22 C 4.455 10.45 4.562 10.676 4.758 10.8 C 4.954 10.924 5.203 10.924 5.399 10.8 C 5.595 10.676 5.702 10.45 5.674 10.22 L 5.674 6.405 L 13.739 6.405 L 13.739 10.22 C 13.776 10.521 14.031 10.747 14.334 10.747 C 14.638 10.747 14.893 10.521 14.93 10.22 L 14.93 6.405 L 18.17 6.405 L 18.17 29.305 L 3.939 29.305 C 2.461 29.317 1.253 28.13 1.239 26.652 L 1.243 26.651 Z  M 21.462 26.651 C 21.454 27.899 20.581 28.974 19.362 29.239 L 19.362 6.405 L 21.462 6.405 L 21.462 26.651 Z " fill="rgb(119,44,232)"/><path d=" M 14.338 26.409 L 5.078 26.409 C 4.777 26.446 4.551 26.701 4.551 27.004 C 4.551 27.307 4.777 27.563 5.078 27.6 L 14.338 27.6 C 14.639 27.563 14.865 27.307 14.865 27.004 C 14.865 26.701 14.639 26.446 14.338 26.409 L 14.338 26.409 Z " fill="rgb(119,44,232)"/></g><path d=" M 12.165 14.1 C 11.277 14.112 10.454 14.567 9.971 15.312 C 9.875 15.447 9.788 15.589 9.71 15.735 C 9.632 15.589 9.545 15.447 9.449 15.312 C 8.999 14.613 8.246 14.167 7.418 14.108 C 6.589 14.049 5.78 14.384 5.236 15.012 C 4.733 15.599 4.462 16.348 4.472 17.121 C 4.504 18.074 4.885 18.982 5.543 19.672 C 6.851 20.863 8.244 21.958 9.71 22.948 C 11.176 21.958 12.569 20.863 13.877 19.672 C 14.535 18.982 14.916 18.074 14.948 17.121 C 14.958 16.348 14.687 15.599 14.184 15.012 C 13.676 14.428 12.939 14.095 12.165 14.1 Z " fill="rgb(119,44,232)"/></g></g></svg>