<?xml version="1.0" standalone="no"?>
<!DOCTYPE svg PUBLIC "-//W3C//DTD SVG 20010904//EN"
 "http://www.w3.org/TR/2001/REC-SVG-20010904/DTD/svg10.dtd">
<svg version="1.0" xmlns="http://www.w3.org/2000/svg"
 width="274.000000pt" height="68.000000pt" viewBox="0 0 274.000000 68.000000"
 preserveAspectRatio="xMidYMid meet">

<g transform="translate(0.000000,68.000000) scale(0.100000,-0.100000)"
fill="#000000" stroke="none">
<path d="M1030 335 l0 -175 40 0 40 0 0 175 0 175 -40 0 -40 0 0 -175z"/>
<path d="M1350 449 c0 -54 -2 -60 -17 -54 -76 30 -148 1 -171 -70 -18 -55 -7
-102 34 -143 32 -32 37 -34 86 -28 29 3 74 5 101 5 l47 0 0 176 0 175 -40 0
-40 0 0 -61z m-26 -120 c37 -29 34 -86 -6 -109 -25 -13 -31 -13 -55 0 -57 32
-37 123 28 129 4 1 18 -9 33 -20z"/>
<path d="M783 389 c-85 -42 -93 -163 -14 -216 64 -43 163 -23 197 39 8 13 13
44 14 69 0 55 -26 94 -76 115 -46 19 -72 18 -121 -7z m101 -60 c32 -25 35 -70
6 -99 -22 -22 -42 -25 -71 -9 -45 24 -43 100 3 119 32 12 32 12 62 -11z"/>
<path d="M1474 382 c60 -189 73 -217 98 -220 24 -3 28 2 53 77 15 45 28 81 30
81 2 0 15 -36 30 -80 23 -69 30 -80 50 -80 21 0 27 12 63 120 l41 120 -24 0
c-22 0 -27 -9 -51 -86 -14 -47 -27 -84 -30 -82 -2 2 -16 40 -31 84 -21 60 -33
80 -48 82 -18 2 -25 -10 -48 -83 -16 -47 -30 -85 -32 -85 -3 0 -16 38 -31 85
-24 76 -29 85 -51 85 -19 0 -23 -4 -19 -18z"/>
<path d="M1904 366 c-29 -29 -34 -41 -34 -80 0 -26 7 -60 15 -76 29 -55 105
-76 165 -45 17 9 30 11 30 5 0 -5 11 -10 25 -10 l25 0 0 120 0 120 -25 0 c-16
0 -25 -6 -25 -16 0 -14 -2 -14 -22 0 -13 9 -43 16 -71 16 -42 0 -54 -5 -83
-34z m161 -39 c39 -55 -4 -137 -70 -137 -25 0 -40 8 -59 31 -14 17 -26 39 -26
49 0 87 107 126 155 57z"/>
<path d="M2216 318 c20 -46 43 -100 51 -121 14 -33 19 -38 45 -35 27 3 33 12
79 116 27 62 49 115 49 118 0 2 -11 4 -24 4 -21 0 -29 -12 -62 -90 -20 -49
-40 -90 -43 -90 -3 0 -22 40 -42 88 -31 76 -38 87 -62 90 l-27 3 36 -83z"/>
<path d="M2504 366 c-30 -30 -34 -40 -34 -86 0 -88 56 -139 142 -127 44 6 96
47 84 66 -11 17 -31 13 -51 -9 -36 -40 -114 -17 -130 38 -6 22 -5 22 94 22
l101 0 0 31 c0 22 -10 41 -34 65 -30 30 -40 34 -86 34 -46 0 -56 -4 -86 -34z
m139 -24 c35 -31 21 -42 -53 -42 -74 0 -88 11 -52 42 32 29 71 29 105 0z"/>
</g>
</svg>
